# xmcd
#
# Track frame offsets: 
#        150
#        11645
#        24660
#        37905
#        45025
#        59130
#        95100
#        112272
#        122870
#        135980
#        144077
#        151792
#        167890
#        178395
#
# Disc length: 2479 seconds
#
# Revision: 4
# Processed by: cddbd v1.5.2PL0 Copyright (c) Steve Scherf et al.
# Submitted via: ExactAudioCopyFreeDBPlugin 1.0
#
DISCID=bc09ad0e
DTITLE=Billie Holiday - Spotlight On Billie Holiday
DYEAR=1900
DGENRE=
TTITLE0=Lover Man
TTITLE1=Ain't Nobody's Business
TTITLE2=Billie's Blues
TTITLE3=Miss Brown To You
TTITLE4=Good Morning Heartache
TTITLE5=Why Not Take All Of Me
TTITLE6=Do Nothing Till You Hear From Me
TTITLE7=My Man
TTITLE8=I Cover The Waterfront
TTITLE9=Lover Come Back To Me
TTITLE10=Them There Eyes
TTITLE11=He's Funny That Way
TTITLE12=You're Driving Me Crazy
TTITLE13=Fine And Mellow
EXTD=
EXTT0=
EXTT1=
EXTT2=
EXTT3=
EXTT4=
EXTT5=
EXTT6=
EXTT7=
EXTT8=
EXTT9=
EXTT10=
EXTT11=
EXTT12=
EXTT13=
PLAYORDER=
